<mxfile host="app.diagrams.net" modified="2024-04-09T06:13:12.476Z" agent="Mozilla/5.0 (Windows NT 10.0; Win64; x64) AppleWebKit/537.36 (KHTML, like Gecko) Chrome/123.0.0.0 Safari/537.36" etag="HJTLcrBOn8YNK49GC8_r" version="24.2.1" type="github">
  <diagram name="페이지-1" id="pEMZxm48bOjHBHnZT3vH">
    <mxGraphModel dx="1290" dy="522" grid="1" gridSize="10" guides="1" tooltips="1" connect="1" arrows="1" fold="1" page="1" pageScale="1" pageWidth="827" pageHeight="1169" math="0" shadow="0">
      <root>
        <mxCell id="0" />
        <mxCell id="1" parent="0" />
        <mxCell id="PapwiMXRqVFnyAmzHA4n-10" value="학사행정 시스템" style="swimlane;whiteSpace=wrap;html=1;" vertex="1" parent="1">
          <mxGeometry width="830" height="490" as="geometry" />
        </mxCell>
        <mxCell id="PapwiMXRqVFnyAmzHA4n-14" value="Use Case" style="ellipse;whiteSpace=wrap;html=1;" vertex="1" parent="PapwiMXRqVFnyAmzHA4n-10">
          <mxGeometry x="220" y="60" width="140" height="70" as="geometry" />
        </mxCell>
        <mxCell id="PapwiMXRqVFnyAmzHA4n-15" style="rounded=0;orthogonalLoop=1;jettySize=auto;html=1;entryX=0;entryY=0.5;entryDx=0;entryDy=0;" edge="1" source="PapwiMXRqVFnyAmzHA4n-16" target="PapwiMXRqVFnyAmzHA4n-14" parent="PapwiMXRqVFnyAmzHA4n-10">
          <mxGeometry relative="1" as="geometry" />
        </mxCell>
        <mxCell id="PapwiMXRqVFnyAmzHA4n-16" value="Actor" style="shape=umlActor;verticalLabelPosition=bottom;verticalAlign=top;html=1;outlineConnect=0;" vertex="1" parent="PapwiMXRqVFnyAmzHA4n-10">
          <mxGeometry x="80" y="65" width="30" height="60" as="geometry" />
        </mxCell>
        <mxCell id="PapwiMXRqVFnyAmzHA4n-11" value="Use Case" style="ellipse;whiteSpace=wrap;html=1;" vertex="1" parent="PapwiMXRqVFnyAmzHA4n-10">
          <mxGeometry x="400" y="150" width="140" height="70" as="geometry" />
        </mxCell>
        <mxCell id="PapwiMXRqVFnyAmzHA4n-12" style="rounded=0;orthogonalLoop=1;jettySize=auto;html=1;entryX=0;entryY=0.5;entryDx=0;entryDy=0;" edge="1" source="PapwiMXRqVFnyAmzHA4n-13" target="PapwiMXRqVFnyAmzHA4n-11" parent="PapwiMXRqVFnyAmzHA4n-10">
          <mxGeometry relative="1" as="geometry" />
        </mxCell>
        <mxCell id="PapwiMXRqVFnyAmzHA4n-13" value="Actor" style="shape=umlActor;verticalLabelPosition=bottom;verticalAlign=top;html=1;outlineConnect=0;" vertex="1" parent="PapwiMXRqVFnyAmzHA4n-10">
          <mxGeometry x="260" y="155" width="30" height="60" as="geometry" />
        </mxCell>
      </root>
    </mxGraphModel>
  </diagram>
</mxfile>
